<?xml version="1.0" encoding="UTF-8"?><svg xmlns="http://www.w3.org/2000/svg" xmlns:xlink="http://www.w3.org/1999/xlink" contentScriptType="text/ecmascript" width="375pt" zoomAndPan="magnify" contentStyleType="text/css" viewBox="0 0 375 374.999991" height="374.999991pt" preserveAspectRatio="xMidYMid meet" version="1.2"><defs><g/></defs><g xml:id="surface1" id="surface1"><path style=" stroke:none;fill-rule:nonzero;fill:rgb(0%,50.19989%,21.569824%);fill-opacity:1;" d="M 29.300781 89.90625 L 285.09375 29.300781 L 345.699219 285.09375 L 89.90625 345.699219 Z M 29.300781 89.90625 "/><g style="fill:rgb(100%,100%,100%);fill-opacity:1;"><g transform="translate(80.664293, 241.361853)"><path style="stroke:none;" d="M 13.273438 -8.59375 C 13.347656 -8.28125 13.265625 -8.027344 13.066406 -7.886719 C 12.886719 -7.65625 12.683594 -7.515625 12.417969 -7.449219 L 11.75 -7.292969 C 11.394531 -7.207031 11.105469 -7.234375 10.976562 -7.390625 C 10.777344 -7.4375 10.636719 -7.640625 10.5625 -7.949219 L 9.265625 -13.417969 C 9.203125 -13.6875 9.226562 -13.972656 9.351562 -14.238281 C 9.390625 -14.480469 9.636719 -14.632812 9.992188 -14.71875 L 11.726562 -15.128906 Z M 6.308594 -37.984375 L 7.382812 -33.449219 L -2.53125 -31.101562 C -3.242188 -30.929688 -3.699219 -30.683594 -3.902344 -30.351562 C -4.109375 -30.023438 -4.058594 -29.421875 -3.871094 -28.621094 L -3.132812 -25.511719 C -2.972656 -24.84375 -2.78125 -24.417969 -2.441406 -24.171875 C -2.109375 -23.96875 -1.578125 -23.90625 -0.867188 -24.074219 L 9.050781 -26.421875 L 10.0625 -22.15625 L 6.101562 -21.21875 C 3.570312 -20.617188 1.769531 -19.484375 0.730469 -17.925781 C -0.308594 -16.363281 -0.445312 -14.171875 0.207031 -11.414062 L 1.523438 -5.855469 C 2.1875 -3.054688 3.285156 -1.199219 4.925781 -0.226562 C 6.554688 0.703125 8.65625 0.859375 11.191406 0.261719 L 16.351562 -0.960938 C 18.882812 -1.5625 20.648438 -2.636719 21.6875 -4.199219 C 22.761719 -5.816406 22.910156 -7.964844 22.289062 -10.777344 L 20.75 -17.269531 L 28.976562 -19.21875 C 29.332031 -19.300781 29.621094 -19.277344 29.808594 -19.085938 C 29.992188 -18.894531 30.144531 -18.648438 30.210938 -18.382812 L 31.503906 -12.914062 C 31.578125 -12.601562 31.542969 -12.359375 31.429688 -12.238281 C 31.339844 -12.027344 31.09375 -11.875 30.738281 -11.792969 L 26.824219 -10.863281 C 26.113281 -10.695312 25.699219 -10.457031 25.496094 -10.125 C 25.292969 -9.796875 25.296875 -9.1875 25.484375 -8.386719 L 26.222656 -5.273438 C 26.371094 -4.652344 26.621094 -4.195312 26.960938 -3.945312 C 27.300781 -3.699219 27.777344 -3.667969 28.488281 -3.839844 L 34.625 -5.292969 C 37.160156 -5.894531 38.96875 -6.980469 40.050781 -8.550781 C 41.035156 -10.144531 41.183594 -12.292969 40.519531 -15.09375 L 39.203125 -20.652344 C 38.550781 -23.410156 37.445312 -25.308594 35.859375 -26.25 C 34.1875 -27.167969 32.070312 -27.371094 29.535156 -26.769531 L 19.085938 -24.292969 L 18.074219 -28.5625 L 21.011719 -29.257812 C 21.722656 -29.425781 22.214844 -29.730469 22.417969 -30.0625 C 22.609375 -30.433594 22.636719 -30.910156 22.480469 -31.578125 L 21.742188 -34.691406 C 21.554688 -35.492188 21.28125 -36.039062 20.953125 -36.242188 C 20.621094 -36.445312 20.058594 -36.453125 19.347656 -36.285156 L 16.410156 -35.589844 L 15.335938 -40.125 C 15.230469 -40.570312 14.957031 -40.925781 14.5625 -41.207031 C 14.078125 -41.46875 13.601562 -41.496094 13.070312 -41.371094 L 7.820312 -40.128906 C 7.242188 -39.992188 6.832031 -39.753906 6.605469 -39.324219 C 6.332031 -38.882812 6.25 -38.441406 6.308594 -37.984375 Z M 35.699219 -34.054688 L 29.941406 -43.492188 C 29.585938 -44.203125 29.203125 -44.628906 28.875 -44.832031 C 28.5625 -44.949219 28.132812 -44.988281 27.554688 -44.851562 L 21.417969 -43.394531 C 20.707031 -43.226562 20.335938 -43 20.246094 -42.789062 C 20.222656 -42.5 20.382812 -42.023438 20.78125 -41.320312 L 26.628906 -31.902344 C 27.03125 -31.199219 27.402344 -30.820312 27.777344 -30.625 C 28.152344 -30.433594 28.671875 -30.414062 29.375 -30.628906 L 34.53125 -31.851562 C 35.078125 -31.933594 35.480469 -32.214844 35.738281 -32.699219 C 36.023438 -33.097656 36.003906 -33.5625 35.699219 -34.054688 Z M 35.699219 -34.054688 "/></g></g><g style="fill:rgb(100%,100%,100%);fill-opacity:1;"><g transform="translate(123.346005, 231.249234)"><path style="stroke:none;" d="M 13.636719 -0.320312 L 32.179688 -4.710938 C 34.757812 -5.324219 36.566406 -6.410156 37.605469 -7.972656 C 38.589844 -9.566406 38.785156 -11.726562 38.121094 -14.527344 L 35.570312 -25.289062 C 35.464844 -25.730469 35.191406 -26.089844 34.753906 -26.363281 C 34.269531 -26.621094 33.792969 -26.652344 33.300781 -26.535156 L 28.054688 -25.292969 C 27.476562 -25.15625 27.019531 -24.90625 26.792969 -24.476562 C 26.566406 -24.046875 26.484375 -23.605469 26.542969 -23.148438 L 29.09375 -12.386719 C 29.167969 -12.078125 29.132812 -11.832031 29.019531 -11.710938 C 28.882812 -11.492188 28.636719 -11.339844 28.28125 -11.257812 L 14.1875 -7.917969 C 13.828125 -7.832031 13.542969 -7.859375 13.367188 -8.003906 C 13.167969 -8.050781 13.027344 -8.253906 12.953125 -8.5625 L 6 -37.910156 C 5.894531 -38.355469 5.621094 -38.714844 5.226562 -38.996094 C 4.742188 -39.257812 4.265625 -39.285156 3.730469 -39.160156 L -1.515625 -37.914062 C -2.09375 -37.777344 -2.507812 -37.539062 -2.734375 -37.109375 C -3.003906 -36.671875 -3.089844 -36.226562 -3.027344 -35.773438 L 3.925781 -6.425781 C 4.589844 -3.625 5.730469 -1.78125 7.371094 -0.808594 C 8.953125 0.132812 11.058594 0.292969 13.636719 -0.320312 Z M 13.636719 -0.320312 "/></g></g><g style="fill:rgb(100%,100%,100%);fill-opacity:1;"><g transform="translate(166.027716, 221.136615)"><path style="stroke:none;" d="M 3.019531 -21.144531 L 18.363281 -24.777344 L 4.035156 -0.015625 C 3.492188 0.863281 3.339844 1.414062 3.625 1.628906 C 3.855469 1.808594 4.332031 1.839844 5 1.679688 L 12.292969 -0.046875 C 13.183594 -0.257812 13.816406 -0.550781 14.242188 -0.933594 C 14.582031 -1.292969 15.078125 -1.976562 15.664062 -2.867188 L 20.035156 -10.382812 L 20.066406 -10.25 C 20.730469 -7.449219 21.828125 -5.59375 23.464844 -4.621094 C 25.09375 -3.691406 27.199219 -3.53125 29.734375 -4.132812 L 40.496094 -6.683594 C 41.117188 -6.832031 41.621094 -7.089844 41.878906 -7.386719 C 42.136719 -7.683594 42.15625 -8.203125 41.984375 -8.914062 L 41.164062 -12.382812 C 41.007812 -13.050781 40.757812 -13.507812 40.382812 -13.699219 C 40.007812 -13.894531 39.441406 -13.902344 38.820312 -13.753906 L 30.28125 -11.730469 C 29.925781 -11.644531 29.640625 -11.671875 29.507812 -11.828125 C 29.308594 -11.875 29.167969 -12.078125 29.09375 -12.386719 L 28.167969 -16.300781 C 27.703125 -18.257812 27.023438 -19.738281 26.070312 -20.78125 L 30.375 -28.1875 C 30.542969 -28.464844 30.527344 -28.929688 30.390625 -29.507812 L 29.632812 -32.710938 C 29.441406 -33.511719 29.171875 -34.054688 28.84375 -34.261719 C 28.511719 -34.464844 28.035156 -34.492188 27.324219 -34.324219 L 1.355469 -28.171875 C 0.644531 -28 0.230469 -27.761719 0.0273438 -27.433594 C -0.175781 -27.101562 -0.171875 -26.492188 0.0195312 -25.691406 L 0.753906 -22.582031 C 0.914062 -21.914062 1.152344 -21.5 1.492188 -21.253906 C 1.832031 -21.003906 2.308594 -20.976562 3.019531 -21.144531 Z M 4.949219 -32.027344 L 23.894531 -36.515625 C 24.648438 -36.695312 25.140625 -37 25.332031 -37.375 C 25.484375 -37.738281 25.511719 -38.214844 25.363281 -38.835938 L 24.613281 -41.992188 C 24.425781 -42.792969 24.15625 -43.339844 23.871094 -43.554688 C 23.539062 -43.757812 22.984375 -43.71875 22.230469 -43.542969 L 3.285156 -39.054688 C 2.574219 -38.882812 2.105469 -38.679688 1.902344 -38.351562 C 1.742188 -38.03125 1.746094 -37.421875 1.9375 -36.621094 L 2.683594 -33.464844 C 2.832031 -32.839844 3.070312 -32.425781 3.367188 -32.167969 C 3.707031 -31.921875 4.238281 -31.859375 4.949219 -32.027344 Z M 4.949219 -32.027344 "/></g></g><g style="fill:rgb(100%,100%,100%);fill-opacity:1;"><g transform="translate(208.709431, 211.023995)"><path style="stroke:none;" d="M -1.890625 -28.386719 L 18.878906 -33.308594 L 11.105469 -18.738281 C 10.34375 -17.195312 10.113281 -15.59375 10.523438 -13.859375 L 11.863281 -8.210938 C 12.503906 -5.5 13.644531 -3.65625 15.25 -2.628906 C 16.835938 -1.6875 18.9375 -1.527344 21.609375 -2.160156 L 36.59375 -5.710938 C 37.257812 -5.871094 37.71875 -6.117188 37.886719 -6.394531 C 38.046875 -6.714844 38.054688 -7.277344 37.882812 -7.988281 L 37.042969 -11.546875 C 36.882812 -12.214844 36.679688 -12.683594 36.402344 -12.851562 C 36.128906 -13.019531 35.609375 -13.039062 34.894531 -12.871094 L 22.132812 -9.847656 C 21.511719 -9.699219 21.136719 -9.890625 21 -10.46875 L 19.925781 -15.007812 C 19.652344 -16.160156 19.777344 -17.222656 20.253906 -18.183594 L 28.679688 -33.75 C 29.464844 -35.207031 30.570312 -36.078125 32.082031 -36.4375 L 33.417969 -36.753906 C 34.128906 -36.921875 34.574219 -37.214844 34.769531 -37.589844 C 34.960938 -37.964844 34.945312 -38.429688 34.796875 -39.050781 L 34.050781 -42.210938 C 33.859375 -43.011719 33.632812 -43.566406 33.304688 -43.769531 C 32.976562 -43.972656 32.464844 -43.945312 31.753906 -43.777344 L -3.554688 -35.414062 C -4.265625 -35.246094 -4.734375 -35.039062 -4.9375 -34.710938 C -5.140625 -34.378906 -5.09375 -33.78125 -4.902344 -32.980469 L -4.15625 -29.824219 C -4.007812 -29.199219 -3.8125 -28.777344 -3.472656 -28.527344 C -3.132812 -28.28125 -2.601562 -28.21875 -1.890625 -28.386719 Z M -1.890625 -28.386719 "/></g></g><g style="fill:rgb(100%,100%,100%);fill-opacity:1;"><g transform="translate(251.39114, 200.911376)"><path style="stroke:none;" d="M 16.46875 -6.015625 C 16.816406 -4.546875 17.65625 -3.382812 18.917969 -2.605469 C 20.140625 -1.8125 21.546875 -1.628906 23.011719 -1.976562 C 24.480469 -2.324219 25.652344 -3.121094 26.433594 -4.382812 C 27.171875 -5.640625 27.398438 -7.054688 27.050781 -8.523438 C 26.703125 -9.988281 25.875 -11.109375 24.644531 -11.945312 C 23.390625 -12.679688 21.972656 -12.90625 20.503906 -12.558594 C 19.039062 -12.210938 17.875 -11.375 17.128906 -10.164062 C 16.359375 -8.855469 16.121094 -7.480469 16.46875 -6.015625 Z M 17.6875 -13.160156 L 22.933594 -14.402344 L 20.695312 -34.160156 C 20.628906 -35.226562 20.476562 -36.269531 20.203125 -37.425781 C 19.75 -39.335938 18.933594 -40.601562 17.820312 -41.136719 C 16.652344 -41.703125 15.269531 -41.796875 13.636719 -41.550781 C 12.113281 -41.050781 10.960938 -40.355469 10.140625 -39.269531 C 9.351562 -38.234375 9.175781 -36.785156 9.621094 -34.917969 C 9.894531 -33.761719 10.226562 -32.761719 10.644531 -31.78125 Z M 17.6875 -13.160156 "/></g></g><g style="fill:rgb(100%,100%,100%);fill-opacity:1;"><g transform="translate(90.520231, 282.960205)"><path style="stroke:none;" d="M -4.363281 -22.347656 C -3.566406 -19.597656 -1.601562 -17.511719 1.367188 -15.960938 C 4.585938 -14.371094 9.175781 -14.234375 15.023438 -15.617188 L 18.273438 -16.390625 C 20.328125 -16.828125 21.753906 -17.015625 22.574219 -16.867188 C 23.242188 -16.734375 23.621094 -16.378906 23.777344 -15.925781 C 23.960938 -15.136719 23.816406 -14.515625 23.3125 -13.953125 C 22.691406 -13.269531 21.410156 -12.671875 19.425781 -12.152344 L 16.734375 -11.515625 C 14.726562 -11.085938 13.242188 -10.933594 12.46875 -11.09375 C 11.652344 -11.242188 11.191406 -11.523438 11.058594 -11.882812 C 10.910156 -12.292969 10.511719 -12.734375 9.871094 -13.171875 C 9.191406 -13.550781 8.152344 -13.597656 6.757812 -13.269531 L 2.070312 -12.15625 C 0.585938 -11.804688 -0.324219 -11.296875 -0.757812 -10.652344 C -1.183594 -9.964844 -1.1875 -8.933594 -0.832031 -7.449219 C -0.164062 -4.617188 1.789062 -2.382812 4.972656 -0.738281 C 8.203125 0.898438 12.785156 0.992188 18.632812 -0.394531 L 22.625 -1.339844 C 28.566406 -2.75 32.570312 -4.875 34.679688 -7.773438 C 36.644531 -10.445312 37.074219 -14.421875 36.007812 -19.757812 L 35.6875 -21.101562 C 34.898438 -23.613281 33.035156 -25.671875 30.035156 -27.164062 C 26.851562 -28.8125 22.269531 -28.90625 16.421875 -27.519531 L 13.125 -26.738281 C 11.121094 -26.3125 9.636719 -26.15625 8.863281 -26.316406 C 8.203125 -26.40625 7.78125 -26.746094 7.660156 -27.257812 C 7.472656 -28.046875 7.644531 -28.773438 8.136719 -29.378906 C 8.675781 -29.996094 10.015625 -30.558594 12 -31.078125 L 14.644531 -31.707031 C 16.699219 -32.144531 18.125 -32.332031 18.945312 -32.183594 C 19.753906 -32.082031 20.175781 -31.742188 20.320312 -31.335938 C 20.46875 -30.929688 20.867188 -30.484375 21.542969 -30.105469 C 22.234375 -29.679688 23.226562 -29.621094 24.621094 -29.953125 L 29.355469 -31.074219 C 30.792969 -31.414062 31.75 -31.933594 32.125 -32.613281 C 32.5625 -33.253906 32.597656 -34.34375 32.257812 -35.78125 C 31.578125 -38.660156 29.636719 -40.847656 26.40625 -42.484375 C 23.222656 -44.128906 18.628906 -44.269531 12.78125 -42.882812 L 8.789062 -41.9375 C 2.847656 -40.527344 -1.148438 -38.355469 -3.300781 -35.445312 C -5.253906 -32.726562 -5.71875 -28.695312 -4.605469 -23.371094 Z M -4.363281 -22.347656 "/></g></g><g style="fill:rgb(100%,100%,100%);fill-opacity:1;"><g transform="translate(128.112502, 274.053432)"><path style="stroke:none;" d=""/></g></g><g style="fill:rgb(100%,100%,100%);fill-opacity:1;"><g transform="translate(172.666361, 263.497243)"><path style="stroke:none;" d="M 9.816406 -17.328125 L 8.476562 -22.988281 C 7.96875 -25.125 8.011719 -26.605469 8.566406 -27.570312 C 9.050781 -28.417969 10.355469 -29.121094 12.339844 -29.640625 L 14.984375 -30.265625 C 17.039062 -30.703125 18.496094 -30.753906 19.371094 -30.375 C 20.246094 -29.992188 20.757812 -29.28125 20.980469 -28.351562 C 21.378906 -26.878906 21.933594 -25.980469 22.621094 -25.554688 C 23.3125 -25.132812 24.292969 -25.121094 25.6875 -25.449219 L 30.421875 -26.570312 C 31.859375 -26.910156 32.824219 -27.386719 33.203125 -28.0625 C 33.628906 -28.753906 33.675781 -29.792969 33.324219 -31.277344 C 31.941406 -37.125 29.636719 -40.847656 26.40625 -42.484375 C 23.222656 -44.128906 18.628906 -44.269531 12.78125 -42.882812 L 8.789062 -41.9375 C 2.847656 -40.527344 -1.148438 -38.355469 -3.300781 -35.445312 C -5.40625 -32.542969 -5.738281 -28.152344 -4.320312 -22.164062 L -1.957031 -12.183594 C -0.546875 -6.242188 1.707031 -2.511719 4.882812 -0.910156 C 8.101562 0.679688 12.636719 0.78125 18.589844 -0.582031 L 22.578125 -1.527344 C 28.429688 -2.910156 32.480469 -5.046875 34.597656 -7.902344 C 36.761719 -10.769531 37.140625 -15.171875 35.734375 -21.113281 C 35.425781 -22.414062 34.90625 -23.367188 34.214844 -23.792969 C 33.5625 -24.277344 32.464844 -24.359375 31.027344 -24.019531 L 26.292969 -22.894531 C 24.898438 -22.566406 24.046875 -22.023438 23.585938 -21.273438 C 23.117188 -20.574219 23.078125 -19.488281 23.386719 -18.1875 C 23.59375 -17.109375 23.398438 -16.28125 22.835938 -15.558594 C 22.269531 -14.835938 20.945312 -14.226562 18.902344 -13.742188 L 16.253906 -13.117188 C 14.257812 -12.644531 12.777344 -12.683594 11.941406 -13.320312 C 11.023438 -13.886719 10.3125 -15.238281 9.816406 -17.328125 Z M 9.816406 -17.328125 "/></g></g><g style="fill:rgb(100%,100%,100%);fill-opacity:1;"><g transform="translate(210.258632, 254.59047)"><path style="stroke:none;" d=""/></g></g><g style="fill:rgb(100%,100%,100%);fill-opacity:1;"><g transform="translate(254.812491, 244.034281)"><path style="stroke:none;" d="M 30.65625 -42.949219 C 30.269531 -44.378906 29.703125 -45.324219 29.003906 -45.792969 C 28.210938 -46.242188 27.171875 -46.292969 25.882812 -45.9375 L 20.777344 -44.726562 C 19.324219 -44.433594 18.371094 -43.914062 17.910156 -43.164062 C 17.449219 -42.417969 17.207031 -41.382812 17.222656 -40.0625 L 17.261719 -15.070312 L 6.085938 -37.421875 C 5.507812 -38.609375 4.824219 -39.429688 4.078125 -39.890625 C 3.332031 -40.347656 2.199219 -40.375 0.816406 -40 L -4.242188 -38.800781 C -5.667969 -38.414062 -6.578125 -37.902344 -7.050781 -37.203125 C -7.511719 -36.457031 -7.558594 -35.414062 -7.171875 -33.988281 L 0.859375 -0.105469 C 1.191406 1.089844 1.699219 2 2.492188 2.449219 C 3.226562 2.863281 4.316406 2.898438 5.695312 2.523438 L 7.925781 1.996094 C 9.351562 1.609375 10.308594 1.085938 10.789062 0.433594 C 11.203125 -0.300781 11.261719 -1.296875 10.929688 -2.492188 L 7.796875 -15.71875 L 13.914062 -3.542969 C 14.582031 -2.179688 15.300781 -1.222656 16.089844 -0.773438 C 16.828125 -0.359375 18.007812 -0.34375 19.667969 -0.785156 L 21.476562 -1.214844 C 23.160156 -1.566406 24.253906 -2.117188 24.769531 -2.828125 C 25.183594 -3.566406 25.441406 -4.753906 25.425781 -6.269531 L 25.398438 -20.039062 L 28.566406 -6.671875 C 28.898438 -5.476562 29.457031 -4.578125 30.25 -4.128906 C 30.9375 -3.703125 32.070312 -3.675781 33.453125 -4.054688 L 35.679688 -4.582031 C 37.0625 -4.957031 38.0625 -5.488281 38.5 -6.132812 C 38.960938 -6.878906 39.019531 -7.871094 38.6875 -9.066406 Z M 30.65625 -42.949219 "/></g></g><g style="fill:rgb(78.819275%,88.62915%,39.608765%);fill-opacity:1;"><g transform="translate(98.314324, 315.854476)"><path style="stroke:none;" d="M 0.671875 -11.28125 L 2.0625 -11.609375 L 2.625 -9.25 L 6.9375 -10.28125 L 6.375 -12.640625 L 7.828125 -12.984375 L 8.390625 -10.625 L 10.6875 -11.15625 L 11 -9.875 L 8.703125 -9.34375 L 8.890625 -8.53125 C 9.410156 -6.320312 9.300781 -4.601562 8.5625 -3.375 C 7.832031 -2.15625 6.304688 -1.15625 3.984375 -0.375 L 3.421875 -1.59375 C 4.785156 -2.050781 5.796875 -2.550781 6.453125 -3.09375 C 7.109375 -3.644531 7.507812 -4.316406 7.65625 -5.109375 C 7.8125 -5.898438 7.738281 -6.925781 7.4375 -8.1875 L 7.25 -9 L 2.9375 -7.96875 L 3.625 -5.0625 L 2.234375 -4.734375 L 1.546875 -7.640625 L -0.75 -7.09375 L -1.0625 -8.375 L 1.234375 -8.921875 Z M 0.671875 -11.28125 "/></g></g><g style="fill:rgb(78.819275%,88.62915%,39.608765%);fill-opacity:1;"><g transform="translate(111.81561, 312.655603)"><path style="stroke:none;" d="M 8.03125 -10.46875 L -0.640625 -8.40625 L -0.953125 -9.75 L 7.34375 -11.71875 L 7.3125 -11.84375 C 7.1875 -12.375 7.265625 -12.867188 7.546875 -13.328125 C 7.828125 -13.785156 8.226562 -14.078125 8.75 -14.203125 C 9.269531 -14.328125 9.757812 -14.25 10.21875 -13.96875 C 10.675781 -13.6875 10.96875 -13.28125 11.09375 -12.75 C 11.21875 -12.226562 11.132812 -11.738281 10.84375 -11.28125 C 10.5625 -10.820312 10.164062 -10.53125 9.65625 -10.40625 L 9.59375 -10.390625 C 9.976562 -7.785156 9.617188 -5.648438 8.515625 -3.984375 C 7.410156 -2.328125 5.515625 -1.03125 2.828125 -0.09375 L 2.28125 -1.359375 C 4.695312 -2.203125 6.363281 -3.34375 7.28125 -4.78125 C 8.195312 -6.21875 8.445312 -8.113281 8.03125 -10.46875 Z M 9.96875 -11.84375 C 10.101562 -12.050781 10.140625 -12.269531 10.078125 -12.5 C 10.023438 -12.738281 9.890625 -12.925781 9.671875 -13.0625 C 9.460938 -13.195312 9.234375 -13.234375 8.984375 -13.171875 C 8.742188 -13.117188 8.554688 -12.984375 8.421875 -12.765625 C 8.296875 -12.554688 8.257812 -12.332031 8.3125 -12.09375 C 8.375 -11.863281 8.507812 -11.679688 8.71875 -11.546875 C 8.9375 -11.421875 9.164062 -11.382812 9.40625 -11.4375 C 9.65625 -11.5 9.84375 -11.632812 9.96875 -11.84375 Z M 9.96875 -11.84375 "/></g></g><g style="fill:rgb(78.819275%,88.62915%,39.608765%);fill-opacity:1;"><g transform="translate(125.316897, 309.45673)"><path style="stroke:none;" d="M -0.125 -6.78125 L 10.421875 -9.28125 L 10.484375 -9.015625 C 11.472656 -4.835938 9.210938 -1.910156 3.703125 -0.234375 L 3.171875 -1.453125 C 5.179688 -2.066406 6.710938 -2.867188 7.765625 -3.859375 C 8.828125 -4.847656 9.3125 -6.101562 9.21875 -7.625 L 0.1875 -5.484375 Z M 0.390625 -9.21875 L 0.078125 -10.5 L 8.703125 -12.546875 L 9.015625 -11.265625 Z M 0.390625 -9.21875 "/></g></g><g style="fill:rgb(78.819275%,88.62915%,39.608765%);fill-opacity:1;"><g transform="translate(138.818184, 306.257857)"><path style="stroke:none;" d="M 0.015625 -5.53125 C 1.867188 -6.238281 3.597656 -7.25 5.203125 -8.5625 C 6.804688 -9.882812 8.054688 -11.304688 8.953125 -12.828125 L 10.0625 -12.046875 C 9.28125 -10.722656 8.1875 -9.425781 6.78125 -8.15625 L 8.40625 -1.296875 L 6.90625 -0.9375 L 5.453125 -7.046875 C 3.890625 -5.847656 2.25 -4.921875 0.53125 -4.265625 Z M 0.015625 -5.53125 "/></g></g><g style="fill:rgb(78.819275%,88.62915%,39.608765%);fill-opacity:1;"><g transform="translate(152.31947, 303.058984)"><path style="stroke:none;" d="M 0 -4.546875 L -0.3125 -5.84375 L 5.171875 -7.15625 L 5.15625 -7.21875 L 4.578125 -9.6875 C 3.460938 -9.300781 2.117188 -8.921875 0.546875 -8.546875 L 0.25 -9.828125 C 2.132812 -10.273438 3.6875 -10.734375 4.90625 -11.203125 C 6.132812 -11.679688 7.316406 -12.28125 8.453125 -13 L 9.15625 -11.84375 C 8.082031 -11.164062 7.03125 -10.613281 6 -10.1875 L 6.625 -7.5625 L 6.640625 -7.5 L 11.15625 -8.5625 L 11.46875 -7.265625 L 6.890625 -6.1875 C 7.097656 -4.644531 6.929688 -3.398438 6.390625 -2.453125 C 5.859375 -1.515625 4.882812 -0.734375 3.46875 -0.109375 L 2.78125 -1.25 C 3.882812 -1.757812 4.640625 -2.351562 5.046875 -3.03125 C 5.460938 -3.71875 5.59375 -4.65625 5.4375 -5.84375 Z M 0 -4.546875 "/></g></g><g style="fill:rgb(78.819275%,88.62915%,39.608765%);fill-opacity:1;"><g transform="translate(165.820757, 299.860111)"><path style="stroke:none;" d="M 1.03125 -8.234375 L 8.875 -10.09375 L 9.171875 -8.890625 L 5.953125 -8.125 L 7.171875 -2.96875 L 10.71875 -3.8125 L 11 -2.609375 L 2.515625 -0.59375 L 2.234375 -1.796875 L 5.765625 -2.640625 L 4.546875 -7.796875 L 1.328125 -7.03125 Z M 1.03125 -8.234375 "/></g></g><g style="fill:rgb(78.819275%,88.62915%,39.608765%);fill-opacity:1;"><g transform="translate(179.322043, 296.661238)"><path style="stroke:none;" d="M 0.234375 -4.453125 L -0.109375 -5.859375 L 10.953125 -8.484375 L 11.296875 -7.078125 Z M 0.234375 -4.453125 "/></g></g><g style="fill:rgb(78.819275%,88.62915%,39.608765%);fill-opacity:1;"><g transform="translate(192.82333, 293.462365)"><path style="stroke:none;" d="M -0.1875 -9.171875 L 0.171875 -10.5625 C 1.859375 -10.1875 3.414062 -9.773438 4.84375 -9.328125 L 4.421875 -7.890625 C 2.703125 -8.421875 1.164062 -8.847656 -0.1875 -9.171875 Z M 9.078125 -11.375 L 10.484375 -11.375 C 10.804688 -5.925781 8.113281 -2.253906 2.40625 -0.359375 L 1.875 -1.6875 C 4.425781 -2.550781 6.285156 -3.769531 7.453125 -5.34375 C 8.617188 -6.914062 9.160156 -8.925781 9.078125 -11.375 Z M 9.078125 -11.375 "/></g></g><g style="fill:rgb(78.819275%,88.62915%,39.608765%);fill-opacity:1;"><g transform="translate(206.324617, 290.263492)"><path style="stroke:none;" d="M -0.625 -8.71875 L -0.9375 -10.046875 L 9.828125 -12.59375 L 10.140625 -11.265625 C 10.054688 -9.984375 9.675781 -8.722656 9 -7.484375 C 8.320312 -6.242188 7.367188 -5.09375 6.140625 -4.03125 C 6.390625 -3.800781 7.128906 -3.117188 8.359375 -1.984375 L 7.28125 -0.890625 C 5.289062 -2.753906 3.457031 -4.390625 1.78125 -5.796875 L 2.796875 -6.921875 C 3.859375 -6.003906 4.597656 -5.375 5.015625 -5.03125 C 5.992188 -5.832031 6.804688 -6.765625 7.453125 -7.828125 C 8.109375 -8.898438 8.488281 -9.921875 8.59375 -10.890625 Z M -0.625 -8.71875 "/></g></g><g style="fill:rgb(78.819275%,88.62915%,39.608765%);fill-opacity:1;"><g transform="translate(219.825903, 287.06462)"><path style="stroke:none;" d="M -0.265625 -9.28125 L 3.859375 -10.25 L 3.390625 -12.203125 L 4.890625 -12.5625 L 5.359375 -10.609375 L 9.71875 -11.640625 L 10.015625 -10.359375 C 9.546875 -9.015625 8.789062 -7.757812 7.75 -6.59375 C 9.019531 -6.09375 10.445312 -5.503906 12.03125 -4.828125 L 11.375 -3.5625 C 10.132812 -4.082031 8.566406 -4.710938 6.671875 -5.453125 L 6.59375 -5.421875 L 7.640625 -0.953125 L 6.140625 -0.59375 L 5.265625 -4.328125 C 3.984375 -3.367188 2.566406 -2.5 1.015625 -1.71875 L 0.359375 -2.953125 C 2.285156 -3.921875 3.925781 -5 5.28125 -6.1875 C 6.632812 -7.382812 7.640625 -8.640625 8.296875 -9.953125 L 0.03125 -8 Z M -0.265625 -9.28125 "/></g></g><g style="fill:rgb(78.819275%,88.62915%,39.608765%);fill-opacity:1;"><g transform="translate(233.32719, 283.865747)"><path style="stroke:none;" d="M 9.03125 -10.921875 L 10.4375 -11.015625 C 10.601562 -8.046875 10.0625 -5.707031 8.8125 -4 C 7.570312 -2.289062 5.425781 -0.929688 2.375 0.078125 L 1.84375 -1.234375 C 4.644531 -2.148438 6.582031 -3.332031 7.65625 -4.78125 C 8.726562 -6.226562 9.1875 -8.273438 9.03125 -10.921875 Z M 6.59375 -12.78125 L 7.46875 -13.53125 C 8 -12.976562 8.515625 -12.398438 9.015625 -11.796875 L 8.140625 -11.046875 C 7.671875 -11.597656 7.15625 -12.175781 6.59375 -12.78125 Z M 8.453125 -13.4375 L 9.375 -14.203125 C 9.96875 -13.578125 10.5 -12.988281 10.96875 -12.4375 L 10.046875 -11.671875 C 9.660156 -12.128906 9.128906 -12.71875 8.453125 -13.4375 Z M 0.125 -7.21875 C 1.394531 -7.289062 2.9375 -7.351562 4.75 -7.40625 L 4.796875 -6.046875 C 3.078125 -5.992188 1.535156 -5.925781 0.171875 -5.84375 Z M -0.0625 -10.6875 C 1.257812 -10.789062 2.859375 -10.867188 4.734375 -10.921875 L 4.78125 -9.546875 C 2.914062 -9.484375 1.316406 -9.40625 -0.015625 -9.3125 Z M -0.0625 -10.6875 "/></g></g><g style="fill:rgb(78.819275%,88.62915%,39.608765%);fill-opacity:1;"><g transform="translate(246.828477, 280.666874)"><path style="stroke:none;" d="M 5.328125 -6.078125 C 3.691406 -6.859375 2.21875 -7.507812 0.90625 -8.03125 L 1.5625 -9.34375 C 2.988281 -8.757812 4.4375 -8.125 5.90625 -7.4375 C 6.507812 -8.957031 6.847656 -10.664062 6.921875 -12.5625 L 8.453125 -12.609375 C 8.378906 -10.484375 8.003906 -8.53125 7.328125 -6.75 C 8.828125 -6.007812 10.269531 -5.226562 11.65625 -4.40625 L 10.890625 -3.140625 C 9.617188 -3.859375 8.234375 -4.609375 6.734375 -5.390625 C 5.722656 -3.398438 4.226562 -1.546875 2.25 0.171875 L 1.140625 -0.828125 C 3.003906 -2.484375 4.398438 -4.234375 5.328125 -6.078125 Z M 5.328125 -6.078125 "/></g></g><g style="fill:rgb(78.819275%,88.62915%,39.608765%);fill-opacity:1;"><g transform="translate(260.329763, 277.468001)"><path style="stroke:none;" d="M -0.1875 -9.171875 L 0.171875 -10.5625 C 1.859375 -10.1875 3.414062 -9.773438 4.84375 -9.328125 L 4.421875 -7.890625 C 2.703125 -8.421875 1.164062 -8.847656 -0.1875 -9.171875 Z M 9.078125 -11.375 L 10.484375 -11.375 C 10.804688 -5.925781 8.113281 -2.253906 2.40625 -0.359375 L 1.875 -1.6875 C 4.425781 -2.550781 6.285156 -3.769531 7.453125 -5.34375 C 8.617188 -6.914062 9.160156 -8.925781 9.078125 -11.375 Z M 9.078125 -11.375 "/></g></g><g style="fill:rgb(78.819275%,88.62915%,39.608765%);fill-opacity:1;"><g transform="translate(273.83105, 274.269128)"><path style="stroke:none;" d="M 0.765625 -11.171875 L 2.265625 -11.53125 L 3.1875 -7.65625 C 5.75 -7.644531 8.40625 -7.472656 11.15625 -7.140625 L 11.03125 -5.6875 C 8.457031 -6.007812 5.957031 -6.179688 3.53125 -6.203125 L 4.890625 -0.453125 L 3.390625 -0.09375 Z M 0.765625 -11.171875 "/></g></g></g></svg>